<?xml version="1.0" encoding="UTF-8"?>
<!DOCTYPE svg PUBLIC "-//W3C//DTD SVG 1.1//EN" "http://www.w3.org/Graphics/SVG/1.1/DTD/svg11.dtd">
<svg xmlns="http://www.w3.org/2000/svg" version="1.1" width="283px" height="300px" style="shape-rendering:geometricPrecision; text-rendering:geometricPrecision; image-rendering:optimizeQuality; fill-rule:evenodd; clip-rule:evenodd" xmlns:xlink="http://www.w3.org/1999/xlink">
<g><path style="opacity:0.994" fill="#fe9346" d="M 42.5,-0.5 C 43.5,-0.5 44.5,-0.5 45.5,-0.5C 45.5,69.8333 45.5,140.167 45.5,210.5C 37.7918,214.681 30.4585,219.348 23.5,224.5C 15.7422,229.593 7.74219,234.26 -0.5,238.5C -0.5,167.5 -0.5,96.5 -0.5,25.5C 14.3399,17.5841 28.6733,8.91739 42.5,-0.5 Z"/></g>
<g><path style="opacity:0.998" fill="#fe6b00" d="M 45.5,-0.5 C 114.5,-0.5 183.5,-0.5 252.5,-0.5C 257.64,1.81949 260.806,5.81949 262,11.5C 262.5,22.8284 262.667,34.1618 262.5,45.5C 261.501,100.331 261.168,155.331 261.5,210.5C 189.5,210.5 117.5,210.5 45.5,210.5C 45.5,140.167 45.5,69.8333 45.5,-0.5 Z"/></g>
<g><path style="opacity:0.995" fill="#923b00" d="M 262.5,45.5 C 269.167,45.5 275.833,45.5 282.5,45.5C 282.5,130.167 282.5,214.833 282.5,299.5C 199.167,299.5 115.833,299.5 32.5,299.5C 28.4259,296.91 25.5926,293.244 24,288.5C 23.5,267.169 23.3334,245.836 23.5,224.5C 30.4585,219.348 37.7918,214.681 45.5,210.5C 117.5,210.5 189.5,210.5 261.5,210.5C 261.168,155.331 261.501,100.331 262.5,45.5 Z"/></g>
<g><path style="opacity:1" fill="#fffefe" d="M 122.5,47.5 C 146.833,47.5 171.167,47.5 195.5,47.5C 195.5,53.8333 195.5,60.1667 195.5,66.5C 180.657,66.1707 165.99,66.504 151.5,67.5C 151.5,76.8333 151.5,86.1667 151.5,95.5C 163.655,96.4952 175.989,96.8286 188.5,96.5C 188.5,102.833 188.5,109.167 188.5,115.5C 175.989,115.171 163.655,115.505 151.5,116.5C 150.504,131.658 150.17,146.991 150.5,162.5C 141.167,162.5 131.833,162.5 122.5,162.5C 122.5,124.167 122.5,85.8333 122.5,47.5 Z"/></g>
<g><path style="opacity:0.992" fill="#ffede1" d="M 122.5,47.5 C 122.5,47.1667 122.5,46.8333 122.5,46.5C 147.167,46.5 171.833,46.5 196.5,46.5C 196.5,53.5 196.5,60.5 196.5,67.5C 181.5,67.5 166.5,67.5 151.5,67.5C 165.99,66.504 180.657,66.1707 195.5,66.5C 195.5,60.1667 195.5,53.8333 195.5,47.5C 171.167,47.5 146.833,47.5 122.5,47.5 Z"/></g>
<g><path style="opacity:0.988" fill="#ffe1cb" d="M 151.5,95.5 C 164.167,95.5 176.833,95.5 189.5,95.5C 189.5,102.5 189.5,109.5 189.5,116.5C 176.833,116.5 164.167,116.5 151.5,116.5C 163.655,115.505 175.989,115.171 188.5,115.5C 188.5,109.167 188.5,102.833 188.5,96.5C 175.989,96.8286 163.655,96.4952 151.5,95.5 Z"/></g>
<g><path style="opacity:0.984" fill="#ffcda9" d="M 122.5,46.5 C 122.5,46.8333 122.5,47.1667 122.5,47.5C 122.5,85.8333 122.5,124.167 122.5,162.5C 131.833,162.5 141.167,162.5 150.5,162.5C 150.17,146.991 150.504,131.658 151.5,116.5C 151.5,132.167 151.5,147.833 151.5,163.5C 141.5,163.5 131.5,163.5 121.5,163.5C 121.168,124.33 121.501,85.3298 122.5,46.5 Z"/></g>
<g><path style="opacity:1" fill="#faf5f2" d="M 112.5,256.5 C 111.432,255.566 110.099,255.232 108.5,255.5C 108.5,253.5 108.5,251.5 108.5,249.5C 110.415,249.784 112.081,249.451 113.5,248.5C 117.254,247.172 118.421,244.506 117,240.5C 112.818,237.447 109.318,238.114 106.5,242.5C 103.232,243.487 99.8984,243.82 96.5,243.5C 97.4221,237.069 101.089,232.902 107.5,231C 113.557,229.838 119.223,230.838 124.5,234C 128.203,237.396 129.369,241.563 128,246.5C 126.378,248.906 124.211,250.739 121.5,252C 131.988,257.039 133.321,264.039 125.5,273C 115.638,278.36 106.471,277.526 98,270.5C 96.5886,268.35 95.7553,266.016 95.5,263.5C 99.1667,263.5 102.833,263.5 106.5,263.5C 106.297,265.39 106.963,266.89 108.5,268C 116.985,270.021 120.152,266.855 118,258.5C 116.416,257.139 114.582,256.472 112.5,256.5 Z"/></g>
<g><path style="opacity:1" fill="#fbf7f5" d="M 167.5,239.5 C 167.5,240.5 167.5,241.5 167.5,242.5C 164.5,242.5 161.5,242.5 158.5,242.5C 154.5,237.167 150.5,237.167 146.5,242.5C 145.2,245.024 145.2,247.691 146.5,250.5C 147.107,250.376 147.44,250.043 147.5,249.5C 155.319,244.834 162.152,246.167 168,253.5C 171.585,264.445 168.085,271.945 157.5,276C 147.64,278.649 140.473,275.482 136,266.5C 135.333,257.833 135.333,249.167 136,240.5C 142.481,230.346 151.314,227.846 162.5,233C 164.79,234.777 166.457,236.944 167.5,239.5 Z"/></g>
<g><path style="opacity:1" fill="#faf6f3" d="M 186.5,230.5 C 192.638,229.732 198.305,230.899 203.5,234C 206.106,235.938 207.939,238.438 209,241.5C 209.667,249.5 209.667,257.5 209,265.5C 207.885,270.245 205.052,273.412 200.5,275C 191.924,278.202 184.424,276.702 178,270.5C 177.138,268.913 176.471,267.246 176,265.5C 175.333,257.167 175.333,248.833 176,240.5C 178.081,235.584 181.581,232.25 186.5,230.5 Z"/></g>
<g><path style="opacity:1" fill="#943f07" d="M 189.5,238.5 C 193.355,237.845 196.188,239.179 198,242.5C 198.667,249.833 198.667,257.167 198,264.5C 194.74,269.285 191.073,269.619 187,265.5C 186.333,257.5 186.333,249.5 187,241.5C 188.045,240.627 188.878,239.627 189.5,238.5 Z"/></g>
<g><path style="opacity:1" fill="#d0ac93" d="M 167.5,239.5 C 168.434,240.568 168.768,241.901 168.5,243.5C 164.958,243.813 161.625,243.479 158.5,242.5C 161.5,242.5 164.5,242.5 167.5,242.5C 167.5,241.5 167.5,240.5 167.5,239.5 Z"/></g>
<g><path style="opacity:0.99" fill="#cda58a" d="M 146.5,242.5 C 146.198,245.059 146.532,247.393 147.5,249.5C 147.44,250.043 147.107,250.376 146.5,250.5C 145.2,247.691 145.2,245.024 146.5,242.5 Z"/></g>
<g><path style="opacity:0.984" fill="#d0aa90" d="M 113.5,248.5 C 112.081,249.451 110.415,249.784 108.5,249.5C 108.5,251.5 108.5,253.5 108.5,255.5C 110.099,255.232 111.432,255.566 112.5,256.5C 110.833,256.5 109.167,256.5 107.5,256.5C 107.5,253.833 107.5,251.167 107.5,248.5C 109.5,248.5 111.5,248.5 113.5,248.5 Z"/></g>
<g><path style="opacity:1" fill="#96420c" d="M 149.5,254.5 C 156.825,253.992 159.658,257.326 158,264.5C 156.179,267.991 153.346,269.157 149.5,268C 148.333,267.5 147.5,266.667 147,265.5C 145.923,261.258 146.756,257.591 149.5,254.5 Z"/></g>
</svg>
