<?xml version="1.0" encoding="utf-8"?>
<!DOCTYPE svg PUBLIC "-//W3C//DTD SVG 1.0//EN" "http://www.w3.org/TR/2001/REC-SVG-20010904/DTD/svg10.dtd">
<svg version="1.0" xmlns="http://www.w3.org/2000/svg" width="400px" height="400px" viewBox="0 0 400 400" preserveAspectRatio="xMidYMid meet">
 <g fill="#1d2d68">
  <path d="M15.2 397.5 c-6.6 -2.9 -6.2 9.5 -6.2 -182.5 0 -150.6 0.2 -174.5 1.5 -177.6 2.8 -6.8 -6.3 -6.4 144.5 -6.4 90 0 136 -0.3 136 -1 0 -0.5 0.5 -1 1 -1 0.6 0 1 4 1 10 l0 10 -133 0 -133 0 0 166 0 166 173 0 173 0 0 -166 0 -166 -5.5 0 -5.5 0 0 -10 c0 -6 0.4 -10 1 -10 0.6 0 1 0.5 1 1 0 0.6 3.5 1 8.5 1 10.7 0 15 1.6 17 6.4 1.3 3.1 1.5 27 1.5 177.6 0 192.7 0.5 179.7 -6.4 182.5 -5.2 2.2 -364.4 2.2 -369.4 0z"/>
 </g>
 <g fill="#314cb0">
  <path d="M24 215 l0 -169 133 0 c120.3 0 133 -0.2 133 -1.6 0 -3.5 3.3 -0.5 5.5 5 4.2 10.4 11.7 17.6 22.2 21.6 9.8 3.7 20.9 1.4 30.5 -6.2 4.9 -3.8 11.5 -13.7 12.4 -18.4 0.4 -2.4 1.2 -3.4 2.5 -3.4 1.1 0 1.9 0.7 1.9 1.5 0 1.2 1.3 1.5 5.5 1.5 l5.5 0 0 169 0 169 -176 0 -176 0 0 -169z m87.5 137.8 c-4.4 -13.8 -4.4 -13.3 -4.4 -61.5 l-0.1 -46.3 3.3 0 c3.1 0.1 4.4 1.6 31 38 15.3 20.9 29.7 41.1 31.9 44.8 4.8 7.8 7.8 16.6 7.8 22.8 l0 4.4 40.6 0 40.6 0 -5.9 -6.7 c-9 -10.3 -12.8 -15.3 -57.7 -77.1 -31.7 -43.7 -41.6 -58 -41.6 -60.2 0 -2.2 7.4 -12.1 35.2 -46.7 43.8 -54.5 52.4 -64.9 61.2 -74.1 l6.9 -7.2 -39.1 0 -39.2 0 0 5.8 c-0.1 10.4 -2.6 14.4 -40.5 62.6 -26.6 33.7 -28.2 35.5 -31.3 35.5 l-3.3 0.1 0.3 -45.7 c0.4 -44.4 0.4 -46 2.6 -51.7 1.2 -3.3 2.2 -6.1 2.2 -6.3 0 -0.1 -16.1 -0.3 -35.9 -0.3 l-35.8 0 1.9 3.8 c1 2.2 2.3 6.5 2.8 9.8 1.3 7.9 1.3 236.9 0 244.8 -0.5 3.3 -1.8 7.6 -2.8 9.8 l-1.9 3.8 35.9 0 36 0 -0.7 -2.2z m247.8 -1.5 c-1.7 -3.5 -1.8 -10.5 -2.1 -99 l-0.2 -95.3 -31.4 0 -31.3 0 1.9 5.5 c1.8 5.3 1.8 9.9 1.6 95.3 -0.3 81.9 -0.4 90 -2 93.5 l-1.7 3.7 33.5 0 33.4 0 -1.7 -3.7z"/>
 </g>
 <g fill="#ff7700">
  <path d="M313.6 73.6 c-6.9 -2.9 -11.9 -6.7 -16.3 -12.4 -8.3 -10.8 -9.7 -25.9 -3.5 -38.4 10.2 -20.8 35.5 -27.8 54.2 -15 20 13.7 22.7 40.6 5.8 57.5 -7.1 7.1 -14.2 10 -25.3 10.4 -7.8 0.3 -9.8 0 -14.9 -2.1z"/>
 </g>
 <g fill="#ffffff">
  <path d="M33.6 356.8 c0.4 -0.7 1.8 -2.7 3.1 -4.4 1.2 -1.7 3.1 -5 4 -7.5 1.7 -4.1 1.8 -12 1.8 -125.9 0 -134.7 0.5 -124.3 -6.5 -134.5 l-3.1 -4.5 43.6 0 43.6 0 -2.5 3.3 c-1.5 1.9 -3.6 6 -4.8 9.3 -2.1 5.7 -2.2 7.4 -2.6 48.9 -0.2 23.6 -0.1 42.7 0.1 42.5 0.2 -0.3 13 -16.5 28.4 -36 37.9 -48.1 40.2 -51.7 40.3 -62.2 l0 -5.8 46.3 0 46.2 0.1 -3 2.2 c-10.6 7.7 -20 18.6 -73.3 85 l-35.1 43.7 41.6 57.3 c48.7 67 52.3 71.7 62.5 82 l7.7 7.7 -47.6 0 -47.6 0 0.6 -4.4 c0.8 -5.7 -1.4 -13.1 -6.3 -21.6 -2.8 -4.8 -57.6 -80.7 -60.7 -84 -0.2 -0.2 -0.3 20 -0.1 45 0.3 44.8 0.3 45.6 2.6 52 1.3 3.6 3.5 8 4.8 9.8 l2.5 3.2 -43.6 0 c-34.6 0 -43.5 -0.3 -42.9 -1.2z"/>
  <path d="M287 357.5 c0 -0.3 1.3 -2.3 2.9 -4.6 1.6 -2.2 3.4 -6.3 4 -9 0.7 -3.3 1.1 -32.9 1.1 -88.8 0 -90.8 0.1 -89.3 -5.5 -97.5 l-2.4 -3.6 36.4 0 36.5 0 0.2 95.3 0.3 95.2 2.3 4.7 c1.3 2.6 3 5.2 3.8 5.9 0.8 0.6 1.4 1.5 1.4 2 0 0.5 -17.9 0.9 -40.5 0.9 -22.3 0 -40.5 -0.2 -40.5 -0.5z"/>
 </g>
</svg>